Cybergeddon follows the story of agent Chloe Jocelyn as she investigates a slew of seemingly unrelated cyberattacks with fellow agent Frank Parker and incarcerated master hacker Chase ΓÇÿRabbitΓÇÖ Rosen. Chloe and her team must crack the worldwide cybercrime ring led by Gustov Dobreff before it is too late. In a world where everyone is connected, everyone is at risk.



All 9 episodes - 1080p

Specs (1st episode)

Video
ID                             : 1
Format                         : AVC
Format/Info                    : Advanced Video Codec
Format profile                 : High@L4.0
Format settings, CABAC         : Yes
Format settings, ReFrames      : 1 frame
Codec ID                       : avc1
Codec ID/Info                  : Advanced Video Coding
Duration                       : 10mn 41s
Bit rate                       : 3 055 Kbps
Maximum bit rate               : 18.6 Mbps
Width                          : 1 920 pixels
Height                         : 1 080 pixels
Display aspect ratio           : 16:9
Frame rate mode                : Constant
Frame rate                     : 23.976 fps
Color space                    : YUV
Chroma subsampling             : 4:2:0
Bit depth                      : 8 bits
Scan type                      : Progressive
Bits/(Pixel*Frame)             : 0.061
Stream size                    : 234 MiB (94%)
Tagged date                    : UTC 2013-04-23 18:48:38

Audio
ID                             : 2
Format                         : AAC
Format/Info                    : Advanced Audio Codec
Format profile                 : LC
Codec ID                       : 40
Duration                       : 10mn 41s
Bit rate mode                  : Variable
Bit rate                       : 192 Kbps
Maximum bit rate               : 201 Kbps
Channel(s)                     : 2 channels
Channel positions              : Front: L R
Sampling rate                  : 44.1 KHz
Compression mode               : Lossy
Stream size                    : 14.7 MiB (6%)
Title                          : IsoMedia File Produced by Google, 5-11-2011
Encoded date                   : UTC 2013-04-23 18:48:19
Tagged date                    : UTC 2013-04-23 18:48:38
